<?xml version="1.0" encoding="utf-8"?>
<!-- Generator: Adobe Illustrator 14.0.0, SVG Export Plug-In . SVG Version: 6.00 Build 43363)  -->
<!DOCTYPE svg PUBLIC "-//W3C//DTD SVG 1.1//EN" "http://www.w3.org/Graphics/SVG/1.1/DTD/svg11.dtd">
<svg version="1.1" id="Layer_1" xmlns="http://www.w3.org/2000/svg" xmlns:xlink="http://www.w3.org/1999/xlink" x="0px" y="0px"
	 width="612px" height="792px" viewBox="0 0 612 792" enable-background="new 0 0 612 792" xml:space="preserve">
<g>
	<polygon fill-rule="evenodd" clip-rule="evenodd" fill="#FFFFFF" points="209,300 401.756,300 401.756,492.756 209,492.756 
		209,300 	"/>
	<path fill-rule="evenodd" clip-rule="evenodd" d="M294.698,391.39c2.237-0.477,4.527-0.741,6.809-0.741
		c1.701-0.001,3.525,0.11,5.063,0.914c1.979,1.024,3.007,2.891,3.082,5.599c0.096,3.414-0.988,6.462-3.256,9.144
		c-2.407,2.854-5.393,4.281-8.954,4.281c-1.318,0-2.378-0.168-3.181-0.502c-0.802-0.333-1.457-0.833-1.963-1.501
		c-0.632,2.294-1.179,4.619-1.846,6.905c-0.525,1.799-1.082,3.59-1.64,5.378c-1.14,3.648-2.139,7.291-4.752,9.617
		c-1.997,1.776-5.258,1.586-7.758,1.586c-0.22,0-0.422-0.036-0.607-0.109c-0.185-0.073-0.281-0.245-0.289-0.514
		c-0.01-0.343,0.119-0.581,0.382-0.716c0.266-0.134,0.57-0.213,0.91-0.237c1.267-0.123,2.903-0.386,3.391-0.788
		c0.489-0.404,0.911-1.266,1.265-2.586c0.018-0.065,0.036-0.131,0.053-0.195c0.329-1.217,0.661-2.433,0.992-3.647
		c0.746-2.741,1.491-5.482,2.234-8.224c0.846-3.113,1.69-6.228,2.537-9.341c0.726-2.668,1.457-5.333,2.179-8.001
		c0.316-1.17,0.633-2.34,0.932-3.515c-1.516,0.621-2.617,1.284-3.569,2c-0.952,0.713-2.683,2.682-2.683,2.682l-1.642,0.001
		c0.636-0.895,0.521-0.748,0.785-1.085c0.295-0.379,0.704-0.894,1.034-1.243c2.262-2.396,5.339-3.818,8.478-4.673
		C293.349,391.696,294.021,391.533,294.698,391.39L294.698,391.39z M303.16,396.191c-0.045-1.584-0.514-2.667-1.405-3.252
		c-0.621-0.415-1.515-0.622-2.683-0.622c-0.511,0-0.906,0.025-1.184,0.073c-0.279,0.049-0.721,0.134-1.325,0.255l-3.07,11.55
		c-0.153,0.634-0.266,1.164-0.339,1.59c-0.073,0.428-0.106,0.763-0.1,1.006c0.018,0.608,0.213,1.084,0.588,1.425
		c0.474,0.439,1.137,0.658,1.989,0.658c2.214,0,4.103-1.633,5.667-4.897C302.608,401.224,303.229,398.629,303.16,396.191
		L303.16,396.191z"/>
	<polygon fill-rule="evenodd" clip-rule="evenodd" points="289.88,365.944 289.88,362.731 288.929,362.731 288.929,361.421 
		292.644,361.421 292.644,362.731 291.692,362.731 291.692,365.944 289.88,365.944 	"/>
	<polygon fill-rule="evenodd" clip-rule="evenodd" points="298.977,361.421 300.7,361.421 300.7,363.674 301.968,361.421 
		303.601,361.421 303.601,365.944 301.878,365.944 301.878,363.772 300.608,365.944 298.977,365.944 298.977,361.421 	"/>
	<polygon fill-rule="evenodd" clip-rule="evenodd" points="310.305,361.421 314.963,361.421 314.963,365.944 313.152,365.944 
		313.152,362.731 312.117,362.731 312.117,365.944 310.305,365.944 310.305,361.421 	"/>
	<path fill-rule="evenodd" clip-rule="evenodd" d="M324.091,366.079c-0.395,0-0.756-0.059-1.081-0.177
		c-0.327-0.118-0.605-0.287-0.838-0.506c-0.231-0.218-0.408-0.474-0.528-0.767c-0.12-0.293-0.182-0.611-0.182-0.951
		c0-0.341,0.062-0.658,0.182-0.951c0.12-0.293,0.296-0.549,0.527-0.767c0.231-0.217,0.508-0.385,0.832-0.503
		c0.325-0.118,0.688-0.178,1.088-0.178c0.401,0,0.763,0.06,1.086,0.178c0.323,0.119,0.601,0.286,0.829,0.501
		c0.229,0.216,0.404,0.471,0.525,0.766c0.121,0.294,0.183,0.613,0.183,0.954c0,0.34-0.062,0.659-0.183,0.953
		c-0.121,0.295-0.297,0.551-0.527,0.769c-0.23,0.216-0.507,0.384-0.831,0.502C324.848,366.02,324.488,366.079,324.091,366.079
		L324.091,366.079z M324.091,364.626c0.259,0,0.471-0.087,0.638-0.26c0.166-0.174,0.249-0.403,0.249-0.689
		c0-0.288-0.082-0.517-0.248-0.688c-0.165-0.171-0.378-0.258-0.639-0.258c-0.173,0-0.326,0.039-0.462,0.118
		c-0.136,0.078-0.24,0.189-0.317,0.333c-0.075,0.143-0.113,0.309-0.113,0.496c0,0.187,0.038,0.352,0.113,0.497
		c0.077,0.145,0.182,0.255,0.317,0.334C323.765,364.586,323.918,364.626,324.091,364.626L324.091,364.626z"/>
	<polygon fill-rule="evenodd" clip-rule="evenodd" points="333.209,365.944 333.209,361.421 336.381,361.421 336.381,362.731 
		335.021,362.731 335.021,365.944 333.209,365.944 	"/>
	<path fill-rule="evenodd" clip-rule="evenodd" d="M342.755,365.944v-4.523h2.363c0.421,0,0.768,0.073,1.038,0.219
		c0.271,0.146,0.467,0.338,0.589,0.574c0.121,0.235,0.182,0.491,0.182,0.765c0,0.278-0.061,0.534-0.182,0.77
		c-0.122,0.237-0.318,0.427-0.591,0.575c-0.27,0.147-0.615,0.22-1.036,0.22h-0.55v1.401H342.755L342.755,365.944z M344.568,362.598
		v0.769h0.201c0.289,0,0.434-0.13,0.434-0.388c0-0.253-0.145-0.381-0.434-0.381H344.568L344.568,362.598z"/>
	<path fill-rule="evenodd" clip-rule="evenodd" d="M352.943,365.944l1.611-4.523h1.993l1.604,4.523h-1.856l-0.182-0.659h-1.131
		l-0.181,0.659H352.943L352.943,365.944z M355.233,364.158h0.629l-0.312-1.156L355.233,364.158L355.233,364.158z"/>
	<path fill-rule="evenodd" clip-rule="evenodd" d="M366.377,365.941v-0.635c-0.373,0-0.723-0.052-1.047-0.158
		c-0.323-0.104-0.592-0.296-0.806-0.573c-0.212-0.277-0.319-0.652-0.319-1.126c0-0.473,0.107-0.849,0.319-1.126
		c0.214-0.276,0.482-0.468,0.806-0.573c0.324-0.105,0.674-0.158,1.047-0.158v-0.498h1.811v0.498c0.367,0,0.714,0.052,1.039,0.158
		c0.326,0.105,0.597,0.296,0.811,0.573c0.215,0.277,0.321,0.653,0.321,1.126c0,0.364-0.063,0.669-0.192,0.914
		c-0.128,0.246-0.297,0.437-0.51,0.574s-0.443,0.232-0.693,0.288c-0.251,0.054-0.51,0.081-0.775,0.081v0.635H366.377
		L366.377,365.941z M366.561,364.038v-1.177h-0.123c-0.16,0-0.293,0.047-0.398,0.14c-0.106,0.093-0.158,0.243-0.158,0.449
		c0,0.196,0.056,0.342,0.169,0.441c0.113,0.098,0.242,0.147,0.388,0.147H366.561L366.561,364.038z M368.014,364.038h0.114
		c0.166,0,0.302-0.052,0.404-0.158c0.104-0.105,0.154-0.249,0.154-0.43s-0.051-0.325-0.154-0.429
		c-0.103-0.107-0.238-0.159-0.404-0.159h-0.114V364.038L368.014,364.038z"/>
	<polygon fill-rule="evenodd" clip-rule="evenodd" points="376.855,361.421 378.579,361.421 378.579,363.674 379.847,361.421 
		381.479,361.421 381.479,365.944 379.757,365.944 379.757,363.772 378.487,365.944 376.855,365.944 376.855,361.421 	"/>
	<path fill-rule="evenodd" clip-rule="evenodd" d="M387.867,365.944l1.03-1.634c-0.155-0.047-0.302-0.124-0.44-0.228
		c-0.14-0.104-0.255-0.249-0.347-0.434c-0.093-0.184-0.139-0.406-0.139-0.665c0-0.452,0.153-0.825,0.461-1.121
		c0.308-0.295,0.798-0.443,1.473-0.443h2.303v4.523h-1.812v-1.268l-0.543,1.268H387.867L387.867,365.944z M390.396,363.454v-0.856
		h-0.182c-0.351,0-0.523,0.143-0.523,0.426c0,0.287,0.173,0.431,0.523,0.431H390.396L390.396,363.454z"/>
	<path fill-rule="evenodd" clip-rule="evenodd" d="M333.316,393.944c0,1.118-0.329,2.087-0.986,2.906
		c-0.657,0.819-1.573,1.229-2.75,1.229c-0.685,0-1.246-0.191-1.685-0.573s-0.656-0.872-0.656-1.474
		c-0.055-0.301-0.095-0.604-0.122-0.906c-0.081-0.301-0.271-0.453-0.571-0.453c-0.869,0-2.011,1.129-3.423,3.386
		c-1.034,1.658-2.201,3.93-3.506,6.812c-0.979,2.176-1.727,3.956-2.242,5.344l-0.163,0.448c-0.163,0.491-0.313,0.803-0.448,0.938
		c-0.245,0.246-0.681,0.368-1.305,0.368h-4.076c-0.571,0-0.856-0.191-0.856-0.573l0.165-0.94l3.313-11.124
		c0.436-1.418,0.735-2.475,0.899-3.17c0.162-0.695,0.245-1.22,0.245-1.574c0-0.382-0.123-0.573-0.368-0.573
		c-0.301,0-0.818,0.341-1.554,1.021c-0.573,0.547-1.077,1.092-1.514,1.636c-0.247,0.301-0.423,0.506-0.531,0.614
		c-0.245,0.245-0.478,0.368-0.695,0.368c-0.328,0-0.489-0.178-0.489-0.532c0-0.272,0.048-0.497,0.142-0.674
		c0.095-0.178,0.238-0.389,0.43-0.635c1.173-1.495,2.521-2.739,4.049-3.735c1.663-1.075,3.177-1.613,4.54-1.613
		c0.846,0,1.466,0.225,1.86,0.673c0.396,0.446,0.594,1.037,0.594,1.769c0,0.516-0.069,1.128-0.204,1.833
		c-0.138,0.706-0.369,1.587-0.695,2.645l-0.981,3.337l0.162,0.041c1.47-3.31,3.236-5.955,5.305-7.937
		c1.659-1.574,3.265-2.36,4.813-2.36c1.008,0,1.81,0.328,2.408,0.983C333.017,392.104,333.316,392.935,333.316,393.944
		L333.316,393.944z"/>
	<path fill-rule="evenodd" clip-rule="evenodd" d="M346.038,405.238c-0.027,0.108-0.056,0.219-0.082,0.327
		c-0.027,0.109-0.137,0.315-0.327,0.615c-0.955,1.532-2.264,2.926-3.926,4.183c-2.046,1.559-3.982,2.339-5.809,2.339
		c-1.172,0-1.989-0.3-2.451-0.899c-0.356-0.437-0.533-1.036-0.533-1.8c0-0.6,0.123-1.396,0.367-2.392
		c0.245-0.996,0.708-2.311,1.391-3.946l2.534-6.177c0.438-1.008,0.716-1.751,0.839-2.227c0.122-0.478,0.185-0.825,0.185-1.044
		c0-0.437-0.205-0.654-0.614-0.654c-0.354,0-0.783,0.211-1.287,0.634c-0.505,0.423-1.07,1.029-1.696,1.819
		c-0.274,0.355-0.546,0.71-0.818,1.063c-0.355,0.383-0.695,0.573-1.022,0.573c-0.381,0-0.572-0.204-0.572-0.614
		c0-0.244,0.149-0.572,0.449-0.981c1.338-1.824,2.817-3.212,4.44-4.165c1.623-0.952,3.238-1.428,4.849-1.428
		c1.146,0,1.99,0.313,2.537,0.938c0.408,0.488,0.613,1.099,0.613,1.832c0,0.814-0.26,1.907-0.779,3.279
		c-0.518,1.37-0.913,2.437-1.188,3.195l-2.17,5.743c-0.191,0.543-0.327,0.937-0.409,1.181c-0.191,0.624-0.287,1.072-0.287,1.344
		c0,0.436,0.179,0.652,0.532,0.652c0.326,0,0.845-0.313,1.555-0.94c0.409-0.354,0.831-0.777,1.268-1.268
		c0.49-0.626,0.818-1.049,0.982-1.268c0.3-0.354,0.571-0.531,0.817-0.531C345.834,404.622,346.038,404.827,346.038,405.238
		L346.038,405.238z M347.775,384.996c0,1.063-0.384,1.962-1.146,2.697c-0.764,0.734-1.691,1.102-2.783,1.102
		c-0.981,0-1.751-0.292-2.311-0.878c-0.56-0.585-0.839-1.341-0.839-2.268c0-1.034,0.36-1.925,1.084-2.675
		c0.723-0.75,1.644-1.124,2.762-1.124c0.899,0,1.663,0.301,2.291,0.9C347.461,383.35,347.775,384.098,347.775,384.996
		L347.775,384.996z"/>
	<path fill-rule="evenodd" clip-rule="evenodd" d="M375.084,406.197c0,0.245-0.108,0.531-0.326,0.857
		c-0.9,1.365-2.141,2.579-3.722,3.643c-1.99,1.336-3.954,2.005-5.89,2.005c-0.846,0-1.527-0.246-2.045-0.735
		c-0.518-0.49-0.776-1.159-0.776-2.004c0-0.464,0.041-0.92,0.121-1.371c0.081-0.45,0.26-1.028,0.533-1.737l3.478-8.997
		c0.218-0.518,0.367-0.927,0.449-1.227s0.123-0.6,0.123-0.9c0-0.708-0.247-1.063-0.736-1.063c-1.581,0-3.565,1.656-5.951,4.969
		c-2.387,3.313-4.044,6.755-4.971,10.326l-0.244,0.941c-0.137,0.462-0.396,0.776-0.777,0.939c-0.191,0.082-0.52,0.123-0.982,0.123
		h-4.172c-0.655,0-0.914-0.231-0.777-0.695l3.19-10.797c0.19-0.6,0.443-1.568,0.758-2.904c0.313-1.334,0.47-2.153,0.47-2.454
		c0-0.409-0.163-0.613-0.49-0.613c-0.628,0-1.786,1.022-3.477,3.067c-0.246,0.301-0.424,0.492-0.533,0.573
		c-0.107,0.081-0.23,0.122-0.366,0.122c-0.382,0-0.573-0.218-0.573-0.654c0-0.245,0.068-0.49,0.205-0.737
		c0.026-0.053,0.192-0.285,0.492-0.693c1.856-2.357,3.785-3.993,5.779-4.91c1.175-0.538,2.323-0.807,3.443-0.807
		c0.901,0,1.544,0.204,1.927,0.61c0.383,0.408,0.574,1.045,0.574,1.913c0,0.869-0.111,1.798-0.333,2.789
		c-0.221,0.991-0.499,2.015-0.83,3.073l-0.664,2.035h0.164c1.633-2.849,3.607-5.251,5.923-7.204
		c2.533-2.143,4.836-3.216,6.907-3.216c1.252,0,2.166,0.423,2.737,1.267c0.436,0.626,0.653,1.402,0.653,2.327
		c0,1.008-0.231,2.207-0.693,3.595c-0.19,0.571-0.611,1.62-1.265,3.146l-2.528,5.924c-0.136,0.326-0.272,0.688-0.408,1.082
		c-0.135,0.396-0.203,0.702-0.203,0.919c0,0.382,0.177,0.572,0.532,0.572c0.571,0,1.335-0.469,2.289-1.404
		c0.438-0.439,0.9-0.948,1.391-1.526c0.19-0.219,0.36-0.398,0.511-0.536s0.348-0.206,0.595-0.206
		C374.921,405.624,375.084,405.814,375.084,406.197L375.084,406.197z"/>
	<path fill-rule="evenodd" clip-rule="evenodd" d="M393.235,392.319l-0.245,0.862c-0.055,0.193-0.165,0.288-0.327,0.288h-4.538
		l-3.805,12.874c-0.274,0.896-0.41,1.494-0.41,1.792c0,0.191,0.027,0.354,0.082,0.49c0.054,0.136,0.19,0.202,0.408,0.202
		c0.355,0,0.737-0.161,1.147-0.487c0.626-0.516,1.389-1.479,2.289-2.893c0.189-0.271,0.299-0.422,0.326-0.449
		c0.136-0.162,0.3-0.244,0.491-0.244c0.327,0,0.491,0.193,0.491,0.574c0,0.191-0.035,0.368-0.102,0.532
		c-0.069,0.165-0.172,0.384-0.308,0.656c-0.928,1.692-2.114,3.113-3.558,4.26c-1.637,1.283-3.3,1.925-4.989,1.925
		c-1.228,0-2.113-0.368-2.658-1.104c-0.383-0.516-0.573-1.155-0.573-1.918c0-0.381,0.095-0.938,0.286-1.674
		c0.107-0.464,0.355-1.321,0.736-2.573l3.56-11.964h-3.518c-0.302,0-0.425-0.095-0.369-0.288l0.245-0.986
		c0.055-0.219,0.245-0.329,0.573-0.329h3.559l1.554-5.226c0.162-0.518,0.368-0.844,0.613-0.98c0.244-0.135,0.652-0.205,1.228-0.205
		h4.13c0.49,0,0.737,0.191,0.737,0.572c-0.055,0.245-0.097,0.437-0.124,0.572l-1.554,5.267h4.376
		C393.207,391.867,393.29,392.019,393.235,392.319L393.235,392.319z"/>
	<path fill-rule="evenodd" clip-rule="evenodd" d="M266.378,363.391c4.373-3.752,12.955-2.548,18.269-2.453
		c-0.075,0.202-0.681,2.244-0.731,2.446c-2.068-0.302-4.446-0.783-6.725-0.055c-2.143,0.684-3.619,2.333-4.716,4.232
		c-2.542,4.399-3.186,9.609-4.501,14.436c-2.454,9.005-3.019,19.191-9.932,26.253c-5.933,6.062-15.695,7.813-23.888,5.995
		c-9.506-2.108-16.778-10.012-16.65-19.855c0.15-11.505,9.328-20.834,20.835-20.834c7.553,0,15.115,4.87,18.769,10.886l-1.05,4.495
		c-2.145-7.766-7.434-11.48-11.431-11.641c-9.563-0.385-15.76,6.692-16.437,17.086c-1.247,19.151,12.493,22.111,20.389,15.056
		c3.618-3.232,5.727-10.196,6.966-14.745c1.143-4.195,1.848-8.498,2.991-12.694C260.197,375.904,261.186,367.847,266.378,363.391
		L266.378,363.391z M260.287,406.99c-0.082,3.271,2.048,6.009,4.808,6.544c2.752,0.533,6.677-0.444,10.103-4.263
		c-0.055,0.008-0.951-0.017-1.11-0.012c-3.784,2.583-7.093,2.435-8.369-0.199c-1.412-2.913-1.425-7.013-1.169-10.387
		c0,0-1.414,3.776-2.349,5.467C261.266,405.832,260.287,406.99,260.287,406.99L260.287,406.99z"/>
	<path fill-rule="evenodd" clip-rule="evenodd" d="M276.386,404.327h-0.453c0.167,1.334,1.218,2.383,2.552,2.55v-0.451
		C277.4,406.265,276.546,405.412,276.386,404.327L276.386,404.327z M279.214,402.229v1.369h1.369
		C280.44,402.913,279.899,402.372,279.214,402.229L279.214,402.229z M275.934,403.598h0.453c0.16-1.086,1.014-1.939,2.1-2.101v-0.45
		C277.151,401.215,276.1,402.263,275.934,403.598L275.934,403.598z M282.553,403.598h1.872c-0.184-2.803-2.407-5.027-5.21-5.211
		v1.873C280.982,400.434,282.378,401.831,282.553,403.598L282.553,403.598z M277.116,403.598h1.37v-1.369
		C277.801,402.372,277.26,402.913,277.116,403.598L277.116,403.598z M278.486,405.694v-1.367h-1.37
		C277.26,405.011,277.801,405.551,278.486,405.694L278.486,405.694z M280.583,404.327h-1.369v1.367
		C279.899,405.551,280.439,405.011,280.583,404.327L280.583,404.327z M275.147,404.327h-1.872c0.183,2.802,2.408,5.027,5.21,5.21
		v-1.872C276.719,407.491,275.322,406.093,275.147,404.327L275.147,404.327z M281.767,404.327h-0.453
		c-0.16,1.085-1.014,1.938-2.099,2.099v0.451C280.549,406.71,281.6,405.661,281.767,404.327L281.767,404.327z M279.214,407.665
		v1.872c2.803-0.183,5.026-2.408,5.21-5.21h-1.872C282.378,406.093,280.982,407.491,279.214,407.665L279.214,407.665z
		 M273.275,403.598h1.872c0.174-1.767,1.571-3.164,3.338-3.338v-1.873C275.683,398.57,273.458,400.795,273.275,403.598
		L273.275,403.598z M281.314,403.598h0.453c-0.167-1.335-1.218-2.383-2.552-2.551v0.45
		C280.3,401.658,281.153,402.512,281.314,403.598L281.314,403.598z"/>
</g>
</svg>
